<?xml version="1.0" encoding="UTF-8"?>
<svg version="1.1" xmlns="http://www.w3.org/2000/svg" width="626" height="428">
<path d="M0 0 C206.58 0 413.16 0 626 0 C626 141.24 626 282.48 626 428 C419.42 428 212.84 428 0 428 C0 286.76 0 145.52 0 0 Z " fill="#E4E4E2" transform="translate(0,0)"/>
<path d="M0 0 C0.69996094 0.25394531 1.39992188 0.50789063 2.12109375 0.76953125 C5.94963701 2.13967772 9.58663542 2.72123065 13.62109375 3.20703125 C17.82767596 3.76953934 20.57015486 4.32079067 23.87109375 7.01953125 C26.86746336 9.72669978 26.86746336 9.72669978 30.87109375 9.26953125 C31.90234375 8.96015625 32.93359375 8.65078125 33.99609375 8.33203125 C34.32609375 7.67203125 34.65609375 7.01203125 34.99609375 6.33203125 C34.00609375 6.00203125 33.01609375 5.67203125 31.99609375 5.33203125 C30.80859375 2.26953125 30.80859375 2.26953125 29.99609375 -0.66796875 C34.70971501 3.80997145 38.07604909 8.90150765 41.24609375 14.51953125 C41.60960937 15.14794922 41.973125 15.77636719 42.34765625 16.42382812 C44.99609375 21.07850681 44.99609375 21.07850681 44.99609375 23.33203125 C47.3098478 22.5229637 49.62208323 21.70996208 51.93359375 20.89453125 C52.92262695 20.54938477 52.92262695 20.54938477 53.93164062 20.19726562 C57.21937997 19.21238533 57.21937997 19.21238533 59.99609375 17.33203125 C62.52658777 17.25889558 65.02914212 17.23955598 67.55859375 17.26953125 C68.6249707 17.27629883 68.6249707 17.27629883 69.71289062 17.28320312 C71.47399388 17.29502261 73.23505411 17.31295862 74.99609375 17.33203125 C75.32609375 16.34203125 75.65609375 15.35203125 75.99609375 14.33203125 C77.47620746 14.64001451 78.955167 14.95354925 80.43359375 15.26953125 C81.25730469 15.44355469 82.08101562 15.61757812 82.9296875 15.796875 C84.99609375 16.33203125 84.99609375 16.33203125 85.99609375 17.33203125 C87.96939104 17.26646315 87.96939104 17.26646315 90.24609375 16.95703125 C91.06464844 16.85777344 91.88320313 16.75851563 92.7265625 16.65625 C95.05574148 16.35211855 95.05574148 16.35211855 97.55859375 15.76953125 C103.11677663 14.77190868 108.49697387 15.23220727 113.99609375 16.33203125 C114.32609375 13.69203125 114.65609375 11.05203125 114.99609375 8.33203125 C115.98609375 8.66203125 116.97609375 8.99203125 117.99609375 9.33203125 C117.66609375 7.68203125 117.33609375 6.03203125 116.99609375 4.33203125 C121.27610116 7.18536952 121.25353952 10.22446512 122.36328125 15.078125 C124.59275789 26.54203883 124.59275789 26.54203883 122.99609375 31.33203125 C123.98609375 31.33203125 124.97609375 31.33203125 125.99609375 31.33203125 C127.97609375 34.96203125 129.95609375 38.59203125 131.99609375 42.33203125 C137.45693636 41.72414572 137.45693636 41.72414572 139.99609375 40.33203125 C140.57359375 41.23953125 141.15109375 42.14703125 141.74609375 43.08203125 C144.49587538 47.07620239 144.49587538 47.07620239 147.99609375 50.33203125 C150.7016162 50.78103285 153.03839966 51.02572759 155.74609375 51.08203125 C156.44347656 51.11167969 157.14085937 51.14132813 157.859375 51.171875 C159.57100188 51.24221583 161.2835519 51.28943071 162.99609375 51.33203125 C160.02093972 53.31546727 158.87243326 53.65948755 155.46875 54.0859375 C154.59412109 54.21935547 153.71949219 54.35277344 152.81835938 54.49023438 C150.98607396 54.75865835 149.14978573 55.00110788 147.31054688 55.21679688 C142.17247719 55.9862464 142.17247719 55.9862464 138.51123047 59.38623047 C137.48105836 61.68237479 136.68399784 63.91337676 135.99609375 66.33203125 C135.66609375 67.32203125 135.33609375 68.31203125 134.99609375 69.33203125 C144.20321303 77.78534664 144.20321303 77.78534664 154.53125 84.71875 C158.00006423 86.63731762 160.35537849 88.23702354 162.37890625 91.6953125 C163.36772903 95.29150481 163.37982219 96.8218703 161.99609375 100.33203125 C157.10949775 105.54190984 150.96586517 109.47391507 144.99609375 113.33203125 C147.64681143 117.46669772 149.99563953 120.44281432 153.99609375 123.33203125 C153.66609375 123.99203125 153.33609375 124.65203125 152.99609375 125.33203125 C150.35609375 124.34203125 147.71609375 123.35203125 144.99609375 122.33203125 C142.02609375 125.30203125 139.05609375 128.27203125 135.99609375 131.33203125 C140.28031737 136.03765391 145.2030304 139.33844733 150.49609375 142.83203125 C155.7891571 146.32561517 160.71187013 149.62640859 164.99609375 154.33203125 C164.09246094 154.33460938 163.18882812 154.3371875 162.2578125 154.33984375 C158.75456357 154.45470437 155.44212642 154.68562715 151.99609375 155.33203125 C149.58129751 157.65389281 149.58129751 157.65389281 148.99609375 161.33203125 C148.43385813 163.2904405 147.87134175 165.24876917 147.30859375 167.20703125 C146.86484624 168.91375243 146.42522894 170.6215775 145.99609375 172.33203125 C144.01609375 172.66203125 142.03609375 172.99203125 139.99609375 173.33203125 C139.72345703 174.77835937 139.72345703 174.77835937 139.4453125 176.25390625 C139.19394531 177.5171875 138.94257813 178.78046875 138.68359375 180.08203125 C138.43996094 181.335 138.19632813 182.58796875 137.9453125 183.87890625 C137.03411048 187.19373169 136.09342121 188.71887461 133.99609375 191.33203125 C133.43418776 193.30810808 133.43418776 193.30810808 133.18359375 195.39453125 C131.92030097 201.89455049 128.70224704 208.62587796 123.99609375 213.33203125 C121.34872782 213.12217907 120.21823114 212.54448834 118.29296875 210.703125 C117.7825 210.06503906 117.27203125 209.42695313 116.74609375 208.76953125 C116.2253125 208.12886719 115.70453125 207.48820313 115.16796875 206.828125 C114.78125 206.33441406 114.39453125 205.84070313 113.99609375 205.33203125 C109.11141591 207.16602201 104.67884855 209.65117446 100.12890625 212.1875 C96.99609375 213.33203125 96.99609375 213.33203125 93.55078125 212.69140625 C89.77527371 212.30970659 89.36932583 212.36251871 86.49609375 214.4296875 C85.31235062 215.39744943 84.1460349 216.3868377 82.99609375 217.39453125 C82.08307495 218.15527954 82.08307495 218.15527954 81.15161133 218.93139648 C79.41816324 220.38170002 77.70694313 221.85522059 75.99609375 223.33203125 C74.79533203 224.32203125 74.79533203 224.32203125 73.5703125 225.33203125 C70.31953534 227.94083119 70.31953534 227.94083119 67.99609375 231.33203125 C66.06544573 231.09493413 64.13512031 230.85473479 62.20703125 230.59765625 C60.33165612 230.37234616 58.44465129 230.24740712 56.55859375 230.14453125 C52.2782812 229.16831962 49.60565431 227.29042769 46.109375 224.70703125 C43.94222274 223.29698024 42.56037072 222.59541629 39.99609375 222.33203125 C37.73732699 222.93525557 37.73732699 222.93525557 35.43359375 224.01953125 C34.55832031 224.39078125 33.68304688 224.76203125 32.78125 225.14453125 C31.40259766 225.73234375 31.40259766 225.73234375 29.99609375 226.33203125 C23.63242297 228.87396909 17.85021832 230.81473883 10.99609375 231.33203125 C9.51530895 228.37046165 9.64295338 225.4969683 9.43359375 222.20703125 C9.34980469 220.92570313 9.26601563 219.644375 9.1796875 218.32421875 C9.11910156 217.33679688 9.05851562 216.349375 8.99609375 215.33203125 C8.43148437 215.20441406 7.866875 215.07679688 7.28515625 214.9453125 C4.8809154 214.30117289 2.66589728 213.48273474 0.37109375 212.51953125 C-0.40492188 212.20371094 -1.1809375 211.88789063 -1.98046875 211.5625 C-4.00390625 210.33203125 -4.00390625 210.33203125 -4.86328125 208.3046875 C-5.91299438 205.99194968 -5.91299438 205.99194968 -9.04296875 205.28515625 C-10.22632813 205.053125 -11.4096875 204.82109375 -12.62890625 204.58203125 C-13.81742187 204.3396875 -15.0059375 204.09734375 -16.23046875 203.84765625 C-17.14570313 203.6775 -18.0609375 203.50734375 -19.00390625 203.33203125 C-19.41382813 203.90953125 -19.82375 204.48703125 -20.24609375 205.08203125 C-20.78492188 205.82453125 -21.32375 206.56703125 -21.87890625 207.33203125 C-22.41257812 208.07453125 -22.94625 208.81703125 -23.49609375 209.58203125 C-23.99367188 210.15953125 -24.49125 210.73703125 -25.00390625 211.33203125 C-25.66390625 211.33203125 -26.32390625 211.33203125 -27.00390625 211.33203125 C-27.95738265 209.96992211 -28.90033266 208.59908014 -29.78515625 207.19140625 C-31.64026558 204.36117535 -33.74685907 201.72964596 -35.83203125 199.06640625 C-37.00390625 197.33203125 -37.00390625 197.33203125 -37.00390625 195.33203125 C-38.07769531 195.86054688 -39.15148437 196.3890625 -40.2578125 196.93359375 C-41.6934797 197.60920184 -43.129708 198.2836185 -44.56640625 198.95703125 C-45.27087891 199.30765625 -45.97535156 199.65828125 -46.70117188 200.01953125 C-50.47158562 201.75704911 -52.94479948 202.71052604 -57.03125 201.54296875 C-58.01222656 201.14335937 -58.99320313 200.74375 -60.00390625 200.33203125 C-59.34390625 199.34203125 -58.68390625 198.35203125 -58.00390625 197.33203125 C-57.34390625 197.33203125 -56.68390625 197.33203125 -56.00390625 197.33203125 C-56.00390625 196.67203125 -56.00390625 196.01203125 -56.00390625 195.33203125 C-55.34390625 195.33203125 -54.68390625 195.33203125 -54.00390625 195.33203125 C-54.00390625 194.01203125 -54.00390625 192.69203125 -54.00390625 191.33203125 C-51.52890625 190.34203125 -51.52890625 190.34203125 -49.00390625 189.33203125 C-49.00390625 187.68203125 -49.00390625 186.03203125 -49.00390625 184.33203125 C-49.60074219 184.36683594 -50.19757813 184.40164063 -50.8125 184.4375 C-59.78682542 184.71753096 -68.24248226 183.05761065 -77.00390625 181.33203125 C-76.51019531 180.38585937 -76.01648438 179.4396875 -75.5078125 178.46484375 C-73.8675955 175.59154124 -73.8675955 175.59154124 -73.94140625 173.20703125 C-75.59913587 170.28162603 -78.1690865 169.02086004 -81.00390625 167.33203125 C-80.50890625 166.12546875 -80.50890625 166.12546875 -80.00390625 164.89453125 C-78.79541052 160.58926521 -78.32163274 156.77082244 -79.00390625 152.33203125 C-80.28902499 150.30071453 -81.62266662 148.29925133 -83.00390625 146.33203125 C-83.09671875 144.47578125 -83.09671875 144.47578125 -83.19140625 142.58203125 C-83.65411152 136.41262761 -88.74636364 132.36982973 -93.00390625 128.33203125 C-95.74557028 125.98437882 -97.57188428 124.47603857 -101.00390625 123.33203125 C-101.67057292 120.99869792 -102.33723958 118.66536458 -103.00390625 116.33203125 C-103.99390625 116.00203125 -104.98390625 115.67203125 -106.00390625 115.33203125 C-106.78580522 113.49626845 -107.5447986 111.6468542 -108.17578125 109.75390625 C-108.98012155 107.29626945 -108.98012155 107.29626945 -110.08203125 104.84765625 C-113.27862762 97.23885645 -113.47911383 90.50754125 -113.00390625 82.33203125 C-112.97167969 81.48253906 -112.93945312 80.63304687 -112.90625 79.7578125 C-112.43628176 72.85289446 -109.8155178 67.04944857 -106.00390625 61.33203125 C-105.01390625 61.33203125 -104.02390625 61.33203125 -103.00390625 61.33203125 C-103.00390625 60.01203125 -103.00390625 58.69203125 -103.00390625 57.33203125 C-98.88933013 55.96050588 -95.9641136 57.34442759 -92.00390625 58.64453125 C-91.27945313 58.87076172 -90.555 59.09699219 -89.80859375 59.33007812 C-86.52928889 60.3798187 -83.88486929 61.41138923 -81.00390625 63.33203125 C-79.68390625 63.33203125 -78.36390625 63.33203125 -77.00390625 63.33203125 C-76.49601562 62.34460938 -75.988125 61.3571875 -75.46484375 60.33984375 C-74.77052768 59.04503811 -74.07515945 57.75079628 -73.37890625 56.45703125 C-73.04761719 55.80605469 -72.71632812 55.15507812 -72.375 54.484375 C-70.43390118 50.93179791 -69.56496905 49.57975588 -65.73046875 47.88671875 C-64.83070313 47.70367187 -63.9309375 47.520625 -63.00390625 47.33203125 C-63.66390625 45.35203125 -64.32390625 43.37203125 -65.00390625 41.33203125 C-64.34390625 41.33203125 -63.68390625 41.33203125 -63.00390625 41.33203125 C-62.67390625 40.34203125 -62.34390625 39.35203125 -62.00390625 38.33203125 C-60.25390625 37.83984375 -60.25390625 37.83984375 -58.00390625 37.45703125 C-50.14675933 35.11367164 -46.35966149 26.5308567 -42.5859375 19.8046875 C-41.15810723 17.03665553 -39.98897779 14.28724586 -39.00390625 11.33203125 C-38.34390625 11.33203125 -37.68390625 11.33203125 -37.00390625 11.33203125 C-36.67390625 10.67203125 -36.34390625 10.01203125 -36.00390625 9.33203125 C-36.33390625 11.64203125 -36.66390625 13.95203125 -37.00390625 16.33203125 C-37.66390625 16.33203125 -38.32390625 16.33203125 -39.00390625 16.33203125 C-39.18566406 17.25435547 -39.18566406 17.25435547 -39.37109375 18.1953125 C-39.53867188 19.00355469 -39.70625 19.81179687 -39.87890625 20.64453125 C-40.04132813 21.44503906 -40.20375 22.24554688 -40.37109375 23.0703125 C-41.00390625 25.33203125 -41.00390625 25.33203125 -43.00390625 28.33203125 C-42.38515625 28.04328125 -41.76640625 27.75453125 -41.12890625 27.45703125 C-36.84085965 25.91333448 -32.47550501 25.16346915 -28.00390625 24.33203125 C-26.3367958 24.00092459 -24.66999831 23.66822483 -23.00390625 23.33203125 C-22.01390625 24.81703125 -22.01390625 24.81703125 -21.00390625 26.33203125 C-21.06191406 25.57019531 -21.11992187 24.80835937 -21.1796875 24.0234375 C-21.59587709 14.49864144 -19.14249971 9.14932721 -13.31640625 1.83203125 C-9.18630994 -2.63293774 -5.42167589 -1.8072253 0 0 Z " fill="#040402" transform="translate(273.00390625,98.66796875)"/>
<path d="M0 0 C2.375 1.1875 2.375 1.1875 3.375 3.1875 C4.035 3.1875 4.695 3.1875 5.375 3.1875 C7.55032679 6.35985157 8.98627004 9.6164801 10.375 13.1875 C10.705 13.5175 11.035 13.8475 11.375 14.1875 C11.41563832 15.85367115 11.417721 17.52138095 11.375 19.1875 C16.094619 17.19477198 17.89138967 15.59026377 20.375 11.1875 C22.5625 9.875 22.5625 9.875 24.375 9.1875 C24.375 9.8475 24.375 10.5075 24.375 11.1875 C23.385 11.8475 22.395 12.5075 21.375 13.1875 C25.10297517 14.89075038 26.74374034 15.39965072 30.69921875 14.0703125 C31.80910156 13.49023438 32.91898438 12.91015625 34.0625 12.3125 C40.13733184 9.1875 40.13733184 9.1875 43.375 9.1875 C44.35478311 10.53892497 45.32016433 11.90430552 46.19140625 13.328125 C48.00630748 16.17925697 50.12098826 18.79376223 52.203125 21.453125 C53.375 23.1875 53.375 23.1875 53.375 25.1875 C54.035 25.5175 54.695 25.8475 55.375 26.1875 C54.88 27.6725 54.88 27.6725 54.375 29.1875 C54.65071139 31.19625442 54.97735737 33.19928687 55.375 35.1875 C56.035 35.1875 56.695 35.1875 57.375 35.1875 C57.49875 34.40375 57.6225 33.62 57.75 32.8125 C58.375 30.1875 58.375 30.1875 60.375 28.1875 C61.365 30.1675 61.365 30.1675 62.375 32.1875 C61.715 32.1875 61.055 32.1875 60.375 32.1875 C60.039061 33.6452353 59.70633376 35.10371106 59.375 36.5625 C59.0965625 37.78066406 59.0965625 37.78066406 58.8125 39.0234375 C58.30894761 41.14624951 58.30894761 41.14624951 58.375 43.1875 C59.365 43.1875 60.355 43.1875 61.375 43.1875 C61.375 44.1775 61.375 45.1675 61.375 46.1875 C62.035 46.1875 62.695 46.1875 63.375 46.1875 C63.045 47.8375 62.715 49.4875 62.375 51.1875 C59.405 51.1875 56.435 51.1875 53.375 51.1875 C53.37113281 50.19169922 53.37113281 50.19169922 53.3671875 49.17578125 C53.16006315 44.44644196 52.91291765 41.87713802 49.9375 38.0625 C46.34830159 35.5483272 42.93003846 36.09736608 38.71875 36.33203125 C36.375 36.1875 36.375 36.1875 33.3125 33.875 C31.375 31.1875 31.375 31.1875 30.375 28.1875 C29.715 28.1875 29.055 28.1875 28.375 28.1875 C28.04886719 27.54941406 27.72273438 26.91132813 27.38671875 26.25390625 C26.94972656 25.42761719 26.51273438 24.60132813 26.0625 23.75 C25.63324219 22.92628906 25.20398438 22.10257812 24.76171875 21.25390625 C23.47479113 18.88102356 23.47479113 18.88102356 20.375 18.1875 C17.73695411 18.58147335 17.73695411 18.58147335 15.375 19.1875 C15.045 20.1775 14.715 21.1675 14.375 22.1875 C13.715 22.1875 13.055 22.1875 12.375 22.1875 C11.55 22.6825 10.725 23.1775 9.875 23.6875 C7.375 25.1875 7.375 25.1875 5.375 25.1875 C5.375 25.8475 5.375 26.5075 5.375 27.1875 C4.385 26.8575 3.395 26.5275 2.375 26.1875 C2.375 24.8675 2.375 23.5475 2.375 22.1875 C3.035 22.1875 3.695 22.1875 4.375 22.1875 C4.024375 21.32125 3.67375 20.455 3.3125 19.5625 C2.306041 15.93924758 2.51436481 13.8021678 3.375 10.1875 C2.385 10.6825 2.385 10.6825 1.375 11.1875 C0.11835022 8.28149739 -0.625 6.39145416 -0.625 3.1875 C-2.275 2.8575 -3.925 2.5275 -5.625 2.1875 C-5.625 1.5275 -5.625 0.8675 -5.625 0.1875 C-2.625 -0.8125 -2.625 -0.8125 0 0 Z " fill="#D6D6D6" transform="translate(192.625,284.8125)"/>
<path d="M0 0 C6.69936471 2.21144078 10.97700177 4.09960259 15 10 C15.556875 9.79375 16.11375 9.5875 16.6875 9.375 C19.659538 8.89304789 21.31979941 9.73434972 24 11 C23.01 11.33 22.02 11.66 21 12 C21.495 12.94875 21.99 13.8975 22.5 14.875 C24.26857146 18.91626844 24.20784264 22.50929179 24.0078125 26.86328125 C23.83937471 29.05415015 23.83937471 29.05415015 25 31 C27.52733235 31.65555119 27.52733235 31.65555119 30 32 C29.34 32.99 28.68 33.98 28 35 C25.26171875 35.125 25.26171875 35.125 22 35 C17.78493513 35.50898897 13.88445267 36.2519963 10 38 C8.04270905 40.70758581 7.70210081 42.65151921 7 46 C6.67 46.33 6.34 46.66 6 47 C11.28 47 16.56 47 22 47 C22 47.66 22 48.32 22 49 C21.38253906 49.10957031 20.76507813 49.21914063 20.12890625 49.33203125 C14.9113945 50.30882569 9.99117116 51.57823247 4.984375 53.3359375 C2.68559 54.10521594 0.39213266 54.61417215 -2 55 C-2.268125 55.99 -2.53625 56.98 -2.8125 58 C-3.976839 62.09612784 -5.46711578 66.02843633 -7 70 C-7.99 69.34 -8.98 68.68 -10 68 C-9.69191406 67.29359375 -9.38382812 66.5871875 -9.06640625 65.859375 C-7.98808255 62.96804553 -7.42665258 60.29178918 -6.9375 57.25 C-6.10526316 52.10526316 -6.10526316 52.10526316 -5 51 C-3.00041636 50.95919217 -0.99954746 50.95745644 1 51 C1.10957031 50.27554688 1.21914063 49.55109375 1.33203125 48.8046875 C3.32057416 36.67942584 3.32057416 36.67942584 7 33 C9.01594582 32.76572222 11.038474 32.58663876 13.0625 32.4375 C14.16722656 32.35371094 15.27195312 32.26992187 16.41015625 32.18359375 C17.26480469 32.12300781 18.11945313 32.06242187 19 32 C18.51233154 31.64808594 18.02466309 31.29617187 17.5222168 30.93359375 C8.33687953 24.30448684 -0.84676064 17.67339698 -10 11 C-6.79239749 7.19364503 -3.59253891 3.45436433 0 0 Z " fill="#B5B4B5" transform="translate(418,220)"/>
<path d="M0 0 C2.15924516 0.28789935 4.30483707 0.68118187 6.4375 1.125 C7.61183594 1.35445313 8.78617187 1.58390625 9.99609375 1.8203125 C13 3 13 3 14.13671875 5.51171875 C14.42160156 6.33285156 14.70648438 7.15398437 15 8 C17.0117254 9.16778856 17.0117254 9.16778856 19.375 9.6875 C22.45747034 10.52770513 25.24027475 11.35643029 28 13 C29.55892444 17.2870422 29.48972603 22.48635839 29 27 C27.5 30.0625 27.5 30.0625 26 32 C26.66 32 27.32 32 28 32 C28 32.66 28 33.32 28 34 C27.21625 33.979375 26.4325 33.95875 25.625 33.9375 C23.01885039 33.81315937 23.01885039 33.81315937 21 35 C21.33 33.68 21.66 32.36 22 31 C21.443125 30.731875 20.88625 30.46375 20.3125 30.1875 C15.55690869 27.7454396 11.69590434 24.94234676 7.70703125 21.4140625 C5.90298261 19.83947047 5.90298261 19.83947047 3.1875 18.375 C0.73911965 16.83601806 0.01201553 15.66804094 -1 13 C-3.1385485 15.1385485 -3.42655063 16.13275314 -4 19 C-4.66 19 -5.32 19 -6 19 C-7.39022232 16.27999981 -8.02049556 14.99747631 -8 12 C-5.94271718 7.74096224 -3.3690624 3.3690624 0 0 Z " fill="#DADADA" transform="translate(254,301)"/>
<path d="M0 0 C2.71675995 0.36712972 4.61063713 0.72744599 6.875 2.3125 C8 4 8 4 7.8125 5.9375 C6.9884357 8.02935553 6.01661494 9.99605533 5 12 C13.98361723 13.65707093 22.88310149 15.27643663 32 16 C32 17.65 32 19.3 32 21 C30.35 21.66 28.7 22.32 27 23 C27 24.32 27 25.64 27 27 C26.05125 27.433125 25.1025 27.86625 24.125 28.3125 C20.79958063 29.79302201 20.79958063 29.79302201 19 33 C19.33 33.66 19.66 34.32 20 35 C17.09399739 36.25664978 15.20395416 37 12 37 C11.7525 36.175 11.505 35.35 11.25 34.5 C10.01878301 31.05259244 8.51708022 27.95917296 6.8046875 24.734375 C6 23 6 23 6 21 C5.01 21.33 4.02 21.66 3 22 C2.67 21.01 2.34 20.02 2 19 C0.02699884 17.94773272 -1.97676387 16.95211112 -4 16 C-5.35863401 15.03465478 -6.70343137 14.04722851 -8 13 C-8.99 13.495 -8.99 13.495 -10 14 C-10.66 12.68 -11.32 11.36 -12 10 C-9.37886292 10 -7.49064888 10.31292445 -5 11 C-5.33 10.01 -5.66 9.02 -6 8 C-5.34 7.67 -4.68 7.34 -4 7 C-3.01 7.33 -2.02 7.66 -1 8 C-1 7.34 -1 6.68 -1 6 C-1.66 5.67 -2.32 5.34 -3 5 C2.75 5.875 2.75 5.875 5 7 C3.36587557 5.29159719 2.13093906 4.06546953 0 3 C0 2.01 0 1.02 0 0 Z " fill="#DFDFDF" transform="translate(192,267)"/>
<path d="M0 0 C0.495 0.99 0.495 0.99 1 2 C1.99 2.33 2.98 2.66 4 3 C3.34 3 2.68 3 2 3 C1.9484375 3.76183594 1.896875 4.52367187 1.84375 5.30859375 C0.90272455 13.87406405 -1.78496544 18.18366577 -8 24 C-8.81597656 25.10601562 -8.81597656 25.10601562 -9.6484375 26.234375 C-13.39120401 29.04455849 -17.21155765 28.42429764 -21.75 28.25 C-22.63816406 28.23195313 -23.52632813 28.21390625 -24.44140625 28.1953125 C-26.62870848 28.14827374 -28.81379816 28.08257009 -31 28 C-31.09115728 34.11112657 -30.89647163 39.94881647 -30 46 C-30.66 46 -31.32 46 -32 46 C-35.18415167 41.93746167 -35.43529616 38.43709732 -35.625 33.375 C-35.79775353 28.09300876 -35.79775353 28.09300876 -37 23 C-37.66 22.67 -38.32 22.34 -39 22 C-36.25430077 20.65712527 -33.50405734 19.32553004 -30.75 18 C-29.97269531 17.6184375 -29.19539063 17.236875 -28.39453125 16.84375 C-27.64042969 16.4828125 -26.88632812 16.121875 -26.109375 15.75 C-25.41811523 15.41484375 -24.72685547 15.0796875 -24.01464844 14.734375 C-22 14 -22 14 -18 14 C-16.296875 15.53125 -16.296875 15.53125 -14.75 17.5 C-14.22921875 18.1496875 -13.7084375 18.799375 -13.171875 19.46875 C-12.78515625 19.9740625 -12.3984375 20.479375 -12 21 C-10.10636329 20.96516794 -10.10636329 20.96516794 -8 20 C-5.99795351 17.26126632 -5.99795351 17.26126632 -4.3125 13.875 C-3.71050781 12.75867188 -3.10851562 11.64234375 -2.48828125 10.4921875 C-0.96751965 6.92378626 -0.36698566 3.84600977 0 0 Z " fill="#E0E0E0" transform="translate(406,290)"/>
<path d="M0 0 C-3.01415346 7.85882021 -7.4742854 14.93218188 -12 22 C-15.27512957 20.90829014 -15.75001095 20.36455512 -17.69921875 17.69140625 C-18.18583984 17.02689453 -18.67246094 16.36238281 -19.17382812 15.67773438 C-19.9230957 14.63069336 -19.9230957 14.63069336 -20.6875 13.5625 C-21.19861328 12.86833984 -21.70972656 12.17417969 -22.23632812 11.45898438 C-26 6.26823264 -26 6.26823264 -26 4 C-17.1149093 0.74261814 -9.45606739 -0.55714963 0 0 Z " fill="#C8C8C8" transform="translate(385,116)"/>
<path d="M0 0 C3 3 3 3 3.2578125 5.41015625 C3.21398437 6.28542969 3.17015625 7.16070312 3.125 8.0625 C2.87190234 11.67235887 2.87190234 11.67235887 4 15 C6.52733235 15.65555119 6.52733235 15.65555119 9 16 C8.34 16.99 7.68 17.98 7 19 C4.26171875 19.125 4.26171875 19.125 1 19 C-3.21506487 19.50898897 -7.11554733 20.2519963 -11 22 C-12.95729095 24.70758581 -13.29789919 26.65151921 -14 30 C-14.33 30.33 -14.66 30.66 -15 31 C-9.72 31 -4.44 31 1 31 C1 31.66 1 32.32 1 33 C0.38253906 33.10957031 -0.23492187 33.21914063 -0.87109375 33.33203125 C-6.0886055 34.30882569 -11.00882884 35.57823247 -16.015625 37.3359375 C-18.31441 38.10521594 -20.60786734 38.61417215 -23 39 C-23.268125 39.99 -23.53625 40.98 -23.8125 42 C-24.976839 46.09612784 -26.46711578 50.02843633 -28 54 C-28.99 53.34 -29.98 52.68 -31 52 C-30.69191406 51.29359375 -30.38382812 50.5871875 -30.06640625 49.859375 C-28.98808255 46.96804553 -28.42665258 44.29178918 -27.9375 41.25 C-27.10526316 36.10526316 -27.10526316 36.10526316 -26 35 C-24.00041636 34.95919217 -21.99954746 34.95745644 -20 35 C-19.89042969 34.27554688 -19.78085937 33.55109375 -19.66796875 32.8046875 C-17.67942584 20.67942584 -17.67942584 20.67942584 -14 17 C-11.65012738 16.76472227 -9.29443961 16.58613583 -6.9375 16.4375 C-3.5034375 16.2209375 -3.5034375 16.2209375 0 16 C0 10.72 0 5.44 0 0 Z " fill="#9E9E9E" transform="translate(439,236)"/>
<path d="M0 0 C6.74165966 2.85224063 13.0465623 8.89606597 17 15 C17.9089809 18.02671298 18.37262642 20.84901872 18 24 C17.34 24.66 16.68 25.32 16 26 C15.67 24.68 15.34 23.36 15 22 C14.236875 21.896875 13.47375 21.79375 12.6875 21.6875 C9.66975354 20.91551835 9.06116075 20.22605361 7 18 C5.01811655 16.63988391 3.02048131 15.30208796 1 14 C0.8659375 14.56847656 0.731875 15.13695312 0.59375 15.72265625 C-0.00208122 18.00798257 -0.72668924 20.20649845 -1.5 22.4375 C-2.57210051 25.60673369 -3.46583034 28.68814809 -4 32 C-4.66 32 -5.32 32 -6 32 C-6.33 32.66 -6.66 33.32 -7 34 C-6.3566257 27.56625697 -4.98105834 21.4477949 -3.42578125 15.171875 C-2.97326375 11.80082718 -3.23978242 10.79074496 -5 8 C-4.76255964 4.20095425 -2.73605246 2.47127319 0 0 Z " fill="#CFCFCF" transform="translate(173,222)"/>
<path d="M0 0 C2.375 1.1875 2.375 1.1875 3.375 3.1875 C4.035 3.1875 4.695 3.1875 5.375 3.1875 C7.55032679 6.35985157 8.98627004 9.6164801 10.375 13.1875 C10.705 13.5175 11.035 13.8475 11.375 14.1875 C11.41563832 15.85367115 11.417721 17.52138095 11.375 19.1875 C16.094619 17.19477198 17.89138967 15.59026377 20.375 11.1875 C22.5625 9.875 22.5625 9.875 24.375 9.1875 C24.375 11.1875 24.375 11.1875 22.875 12.8125 C22.38 13.26625 21.885 13.72 21.375 14.1875 C22.365 15.1775 23.355 16.1675 24.375 17.1875 C24.045 17.8475 23.715 18.5075 23.375 19.1875 C22.385 18.8575 21.395 18.5275 20.375 18.1875 C17.73695411 18.58147335 17.73695411 18.58147335 15.375 19.1875 C15.045 20.1775 14.715 21.1675 14.375 22.1875 C13.715 22.1875 13.055 22.1875 12.375 22.1875 C11.55 22.6825 10.725 23.1775 9.875 23.6875 C7.375 25.1875 7.375 25.1875 5.375 25.1875 C5.375 25.8475 5.375 26.5075 5.375 27.1875 C4.385 26.8575 3.395 26.5275 2.375 26.1875 C2.375 24.8675 2.375 23.5475 2.375 22.1875 C3.035 22.1875 3.695 22.1875 4.375 22.1875 C4.024375 21.32125 3.67375 20.455 3.3125 19.5625 C2.306041 15.93924758 2.51436481 13.8021678 3.375 10.1875 C2.385 10.6825 2.385 10.6825 1.375 11.1875 C0.11835022 8.28149739 -0.625 6.39145416 -0.625 3.1875 C-2.275 2.8575 -3.925 2.5275 -5.625 2.1875 C-5.625 1.5275 -5.625 0.8675 -5.625 0.1875 C-2.625 -0.8125 -2.625 -0.8125 0 0 Z " fill="#B8B8B8" transform="translate(192.625,284.8125)"/>
<path d="M0 0 C0.33 0.99 0.66 1.98 1 3 C5.48286615 6.70412052 8.87320887 7.56467734 14.625 7.8125 C15.91664063 7.88082031 17.20828125 7.94914062 18.5390625 8.01953125 C21.31706425 8.00385404 23.39425125 7.86637839 26 7 C25 9 24 11 23 13 C21.06935198 12.76290288 19.13902656 12.52270354 17.2109375 12.265625 C15.33556237 12.04031491 13.44855754 11.91537587 11.5625 11.8125 C7.28218745 10.83628837 4.60956056 8.95839644 1.11328125 6.375 C-0.99678454 5.00209213 -2.51724991 4.34046151 -5 4 C-6.34187818 4.6492959 -7.67479497 5.31731862 -9 6 C-11.75 6.125 -11.75 6.125 -14 6 C-13.34 4.68 -12.68 3.36 -12 2 C-11.01 2.33 -10.02 2.66 -9 3 C-8.5875 2.525625 -8.175 2.05125 -7.75 1.5625 C-5.18000231 -0.7321408 -3.15791486 -1.57895743 0 0 Z " fill="#2B2B2B" transform="translate(318,317)"/>
<path d="M0 0 C1.04449911 3.13349732 0.93423645 3.98968256 0 7 C-0.66 7 -1.32 7 -2 7 C-2.13277344 7.60328125 -2.26554687 8.2065625 -2.40234375 8.828125 C-2.66724609 10.02695313 -2.66724609 10.02695313 -2.9375 11.25 C-3.19853516 12.43335937 -3.19853516 12.43335937 -3.46484375 13.640625 C-3.64144531 14.41921875 -3.81804687 15.1978125 -4 16 C-4.14953125 16.73089844 -4.2990625 17.46179688 -4.453125 18.21484375 C-5 20 -5 20 -6.8125 21.3125 C-9.30727316 23.2370393 -10.44593213 25.3314927 -11.91796875 28.08203125 C-13.69745824 31.2362888 -15.85733774 34.08359858 -18 37 C-19.65 36.67 -21.3 36.34 -23 36 C-22.25 34.0625 -22.25 34.0625 -21 32 C-20.36191406 31.89429688 -19.72382813 31.78859375 -19.06640625 31.6796875 C-16.78766313 31.18494574 -16.78766313 31.18494574 -15.76171875 28.84765625 C-15.22998047 27.46900391 -15.22998047 27.46900391 -14.6875 26.0625 C-12.95080173 21.91162983 -11.04603993 18.43386782 -8.375 14.8125 C-5.32826589 10.6638969 -3.54247534 6.89962756 -2 2 C-1.34 2 -0.68 2 0 2 C0 1.34 0 0.68 0 0 Z " fill="#80807E" transform="translate(236,108)"/>
<path d="M0 0 C1.32 0.66 2.64 1.32 4 2 C3.2884375 2.556875 3.2884375 2.556875 2.5625 3.125 C0.41010781 5.70787063 0.13861349 7.67327622 0 11 C1.31318262 12.89958081 1.31318262 12.89958081 3 14 C2.34 14 1.68 14 1 14 C0.8659375 14.56847656 0.731875 15.13695312 0.59375 15.72265625 C-0.00208122 18.00798257 -0.72668924 20.20649845 -1.5 22.4375 C-2.57210051 25.60673369 -3.46583034 28.68814809 -4 32 C-4.66 32 -5.32 32 -6 32 C-6.33 32.66 -6.66 33.32 -7 34 C-6.3566257 27.56625697 -4.98105834 21.4477949 -3.42578125 15.171875 C-2.97326375 11.80082718 -3.23978242 10.79074496 -5 8 C-4.76255964 4.20095425 -2.73605246 2.47127319 0 0 Z " fill="#929290" transform="translate(173,222)"/>
<path d="M0 0 C2.71675995 0.36712972 4.61063713 0.72744599 6.875 2.3125 C8 4 8 4 7.875 5.875 C6.82472587 8.42566574 5.48343669 10.67809909 4 13 C3.67 12.01 3.34 11.02 3 10 C1.35 10 -0.3 10 -2 10 C-2 11.32 -2 12.64 -2 14 C-2.99 14.33 -3.98 14.66 -5 15 C-5.99 14.34 -6.98 13.68 -8 13 C-8.99 13.495 -8.99 13.495 -10 14 C-10.66 12.68 -11.32 11.36 -12 10 C-9.37886292 10 -7.49064888 10.31292445 -5 11 C-5.33 10.01 -5.66 9.02 -6 8 C-5.34 7.67 -4.68 7.34 -4 7 C-3.01 7.33 -2.02 7.66 -1 8 C-1 7.34 -1 6.68 -1 6 C-1.66 5.67 -2.32 5.34 -3 5 C2.75 5.875 2.75 5.875 5 7 C3.36587557 5.29159719 2.13093906 4.06546953 0 3 C0 2.01 0 1.02 0 0 Z " fill="#BDBDBD" transform="translate(192,267)"/>
<path d="M0 0 C-0.33 0.66 -0.66 1.32 -1 2 C-3.475 1.505 -3.475 1.505 -6 1 C-6 0.34 -6 -0.32 -6 -1 C-7.77305664 -0.74412595 -9.54344608 -0.46972261 -11.3125 -0.1875 C-12.29863281 -0.03667969 -13.28476562 0.11414063 -14.30078125 0.26953125 C-17.24529501 1.0663823 -17.93739379 1.89315559 -20 4 C-23.54302445 5.03091347 -26.94976106 5.13512463 -30.625 5.125 C-31.56601562 5.12757813 -32.50703125 5.13015625 -33.4765625 5.1328125 C-36 5 -36 5 -39 4 C-38.67 3.01 -38.34 2.02 -38 1 C-38 1.66 -38 2.32 -38 3 C-36.69289063 2.70996094 -36.69289063 2.70996094 -35.359375 2.4140625 C-6.00488998 -4.00325998 -6.00488998 -4.00325998 0 0 Z " fill="#BABABA" transform="translate(322,327)"/>
<path d="M0 0 C0.33 0.66 0.66 1.32 1 2 C1.99 2.33 2.98 2.66 4 3 C3.34 3 2.68 3 2 3 C1.9484375 3.76183594 1.896875 4.52367187 1.84375 5.30859375 C0.90272455 13.87406405 -1.78496544 18.18366577 -8 24 C-8.63679688 24.74765625 -9.27359375 25.4953125 -9.9296875 26.265625 C-12 28 -12 28 -14.578125 28.171875 C-15.45984375 28.03265625 -16.3415625 27.8934375 -17.25 27.75 C-18.14203125 27.62109375 -19.0340625 27.4921875 -19.953125 27.359375 C-20.62859375 27.24078125 -21.3040625 27.1221875 -22 27 C-22 26.34 -22 25.68 -22 25 C-18.7 24.67 -15.4 24.34 -12 24 C-12 23.34 -12 22.68 -12 22 C-11.41605469 21.79761719 -10.83210938 21.59523438 -10.23046875 21.38671875 C-7.08417674 19.43061777 -6.0381779 17.06545899 -4.3125 13.8125 C-3.71050781 12.70519531 -3.10851562 11.59789062 -2.48828125 10.45703125 C-0.95773535 6.9018262 -0.36572465 3.83767061 0 0 Z " fill="#9F9F9F" transform="translate(406,290)"/>
<path d="M0 0 C3 3 3 3 3.2578125 5.41015625 C3.21398437 6.28542969 3.17015625 7.16070312 3.125 8.0625 C2.87190234 11.67235887 2.87190234 11.67235887 4 15 C6.52733235 15.65555119 6.52733235 15.65555119 9 16 C8.34 16.99 7.68 17.98 7 19 C5.00117113 19.06843351 2.99917438 19.0574613 1 19 C-1.07638519 19.43878329 -3.14057858 19.93962607 -5.1875 20.5 C-8.30002186 21.34566632 -10.76984475 22 -14 22 C-13.505 20.515 -13.505 20.515 -13 19 C-8.6154534 17.1209086 -4.8359806 16.69085437 0 16 C0 10.72 0 5.44 0 0 Z " fill="#999898" transform="translate(439,236)"/>
<path d="M0 0 C0.33 0.66 0.66 1.32 1 2 C0.01 2.99 -0.98 3.98 -2 5 C-1.01 5.99 -0.02 6.98 1 8 C0.67 8.66 0.34 9.32 0 10 C-0.99 9.67 -1.98 9.34 -3 9 C-5.63804589 9.39397335 -5.63804589 9.39397335 -8 10 C-8.33 10.99 -8.66 11.98 -9 13 C-9.66 13 -10.32 13 -11 13 C-12.2375 13.7425 -12.2375 13.7425 -13.5 14.5 C-16 16 -16 16 -18 16 C-18 16.66 -18 17.32 -18 18 C-18.99 17.67 -19.98 17.34 -21 17 C-21 15.68 -21 14.36 -21 13 C-20.34 13 -19.68 13 -19 13 C-19.33 11.02 -19.66 9.04 -20 7 C-19.34 8.32 -18.68 9.64 -18 11 C-17.01 10.67 -16.02 10.34 -15 10 C-15 10.66 -15 11.32 -15 12 C-7.67735566 8.45663545 -7.67735566 8.45663545 -3 2 C-2.01 1.34 -1.02 0.68 0 0 Z " fill="#7A7A79" transform="translate(216,294)"/>
<path d="M0 0 C1.1875 2.0625 1.1875 2.0625 2 4 C-5.09705662 5.34495828 -11.7725395 6.24091535 -19 6 C-18.67 5.01 -18.34 4.02 -18 3 C-15.3828125 2.0859375 -15.3828125 2.0859375 -12.125 1.375 C-2.40778098 -0.80259366 -2.40778098 -0.80259366 0 0 Z " fill="#191917" transform="translate(251,123)"/>
<path d="M0 0 C2 2 2 2 2.17944336 3.8125 C2.13509155 4.8953125 2.13509155 4.8953125 2.08984375 6 C2.06801025 6.80050781 2.04617676 7.60101563 2.02368164 8.42578125 C1.9952417 9.27527344 1.96680176 10.12476563 1.9375 11 C1.80517334 17.50778869 1.97869834 23.05809365 4.44140625 29.1875 C5 31 5 31 4 34 C-0.8073277 29.1926723 -1.20772497 22.51035447 -1.25 16 C-1.13307189 10.60961434 -0.73644737 5.33924346 0 0 Z " fill="#10100F" transform="translate(161,172)"/>
<path d="M0 0 C5.78949642 2.35868373 8.90600894 6.79646958 12 12 C12.99 12.66 13.98 13.32 15 14 C14 15 14 15 11.93359375 15.09765625 C11.10988281 15.08605469 10.28617188 15.07445312 9.4375 15.0625 C8.61121094 15.05347656 7.78492188 15.04445313 6.93359375 15.03515625 C6.29550781 15.02355469 5.65742188 15.01195312 5 15 C4.97421875 14.33613281 4.9484375 13.67226563 4.921875 12.98828125 C4.56648998 7.45558259 4.16881722 4.03433925 0 0 Z " fill="#A9A9A9" transform="translate(241,321)"/>
<path d="M0 0 C0.33 0.99 0.66 1.98 1 3 C1.66 2.67 2.32 2.34 3 2 C4.54023996 1.93049459 6.08334988 1.91547643 7.625 1.9375 C8.85089844 1.95103516 8.85089844 1.95103516 10.1015625 1.96484375 C11.04128906 1.98224609 11.04128906 1.98224609 12 2 C12 2.33 12 2.66 12 3 C9.36 3 6.72 3 4 3 C3.88730557 9.1105424 4.10395632 14.95170514 5 21 C4.34 21 3.68 21 3 21 C-0.40086196 16.82509198 -0.36697458 12.83703989 -0.1875 7.6875 C-0.17396484 6.94693359 -0.16042969 6.20636719 -0.14648438 5.44335938 C-0.11135979 3.62858925 -0.05755972 1.81419712 0 0 Z " fill="#ABABA9" transform="translate(371,315)"/>
<path d="M0 0 C2.97 0.495 2.97 0.495 6 1 C6 1.99 6 2.98 6 4 C5.01 4.495 5.01 4.495 4 5 C4 5.66 4 6.32 4 7 C3.01 7 2.02 7 1 7 C-2.68437609 13.80192509 -4.48285144 20.29626976 -5 28 C-5.33 28 -5.66 28 -6 28 C-6.02692484 25.70839681 -6.04636124 23.41670454 -6.0625 21.125 C-6.07410156 19.84882813 -6.08570313 18.57265625 -6.09765625 17.2578125 C-6 14 -6 14 -5 12 C-4.34 12 -3.68 12 -3 12 C-2.855625 11.401875 -2.71125 10.80375 -2.5625 10.1875 C-2.1127561 8.43849596 -1.57107659 6.71322977 -1 5 C-0.01 5 0.98 5 2 5 C1.34 3.35 0.68 1.7 0 0 Z " fill="#8D8D8B" transform="translate(166,153)"/>
<path d="M0 0 C1.04449911 3.13349732 0.93423645 3.98968256 0 7 C-0.66 7 -1.32 7 -2 7 C-2.13277344 7.60328125 -2.26554688 8.2065625 -2.40234375 8.828125 C-2.66724609 10.02695313 -2.66724609 10.02695313 -2.9375 11.25 C-3.11152344 12.03890625 -3.28554687 12.8278125 -3.46484375 13.640625 C-3.64144531 14.41921875 -3.81804687 15.1978125 -4 16 C-4.12503906 16.73734375 -4.25007812 17.4746875 -4.37890625 18.234375 C-4.58386719 18.81703125 -4.78882813 19.3996875 -5 20 C-8 21 -8 21 -10 21 C-11.62514468 22.45833358 -11.62514468 22.45833358 -13 24 C-12.38301281 20.3647782 -10.82803028 18.16878273 -8.625 15.25 C-5.50756579 10.93552226 -3.59359758 7.06201584 -2 2 C-1.34 2 -0.68 2 0 2 C0 1.34 0 0.68 0 0 Z " fill="#444442" transform="translate(236,108)"/>
<path d="M0 0 C2.30903272 3.98352209 1.86516528 6.50114053 1 11 C1.99 11 2.98 11 4 11 C4.66 9.68 5.32 8.36 6 7 C9.3 7 12.6 7 16 7 C15.67 7.99 15.34 8.98 15 10 C12.63671875 10.94921875 12.63671875 10.94921875 9.6875 11.6875 C8.23923828 12.06455078 8.23923828 12.06455078 6.76171875 12.44921875 C4 13 4 13 0 13 C-1.06671952 9.79984144 -0.94845472 8.11455706 -0.5625 4.8125 C-0.46066406 3.91144531 -0.35882813 3.01039063 -0.25390625 2.08203125 C-0.17011719 1.39496094 -0.08632813 0.70789063 0 0 Z " fill="#2D2D2D" transform="translate(284,317)"/>
<path d="M0 0 C3.3 0.33 6.6 0.66 10 1 C10 2.65 10 4.3 10 6 C7 8 7 8 4 8 C2.0750353 6.17806158 0.62464469 4.10764717 -1 2 C-0.67 1.34 -0.34 0.68 0 0 Z " fill="#B4B4B4" transform="translate(214,282)"/>
<path d="M0 0 C1.65 0 3.3 0 5 0 C3.83805848 6.46712188 1.8751252 12.09622349 -1 18 C-1.99 17.34 -2.98 16.68 -4 16 C-3.69320313 15.29488281 -3.38640625 14.58976562 -3.0703125 13.86328125 C-1.98405502 10.95734427 -1.3902942 8.24245848 -0.875 5.1875 C-0.70742188 4.21167969 -0.53984375 3.23585938 -0.3671875 2.23046875 C-0.24601562 1.49441406 -0.12484375 0.75835937 0 0 Z " fill="#B7B7B7" transform="translate(412,272)"/>
<path d="M0 0 C0.33 0 0.66 0 1 0 C1.33 1.98 1.66 3.96 2 6 C-3.93024803 6.97040422 -9.06390334 6.89316269 -15 6 C-15 5.01 -15 4.02 -15 3 C-10.05 3 -5.1 3 0 3 C0 2.01 0 1.02 0 0 Z " fill="#3B3B3B" transform="translate(348,113)"/>
<path d="M0 0 C-3.62275941 3.62275941 -8.42801009 5.96513869 -13.59375 6.03515625 C-15.76164923 5.78475017 -17.86821776 5.46365004 -20 5 C-20.66 3.35 -21.32 1.7 -22 0 C-20.515 0.99 -20.515 0.99 -19 2 C-12.02846989 2.57143689 -6.32983136 -2.04788662 0 0 Z " fill="#C1C0C0" transform="translate(463,247)"/>
<path d="M0 0 C0.99 0.33 1.98 0.66 3 1 C3 1.99 3 2.98 3 4 C3.66 4.33 4.32 4.66 5 5 C-4.9 6.485 -4.9 6.485 -15 8 C-12.64036293 4.46054439 -11.4366346 4.19066472 -7.5 2.875 C-3.67841709 1.60840295 -3.67841709 1.60840295 0 0 Z " fill="#C7C7C7" transform="translate(313,320)"/>
<path d="M0 0 C0.66 0 1.32 0 2 0 C5.6137591 5.27006535 7.32109891 10.88400317 9 17 C7.68 17.33 6.36 17.66 5 18 C4.87625 16.88625 4.7525 15.7725 4.625 14.625 C4.3534187 10.96896323 4.3534187 10.96896323 2 9 C1.835 7.824375 1.67 6.64875 1.5 5.4375 C1.335 4.303125 1.17 3.16875 1 2 C0.34 1.67 -0.32 1.34 -1 1 C-0.67 0.67 -0.34 0.34 0 0 Z " fill="#C0C0BF" transform="translate(196,288)"/>
<path d="M0 0 C0.33 0.66 0.66 1.32 1 2 C-2.02325581 8.51162791 -2.02325581 8.51162791 -5.625 10.3125 C-6.800625 10.6528125 -6.800625 10.6528125 -8 11 C-8.66 11.66 -9.32 12.32 -10 13 C-10.33 12.34 -10.66 11.68 -11 11 C-11.99 10.34 -12.98 9.68 -14 9 C-13.34 9 -12.68 9 -12 9 C-11.67 8.01 -11.34 7.02 -11 6 C-9.00390625 5.15625 -9.00390625 5.15625 -6.5625 4.5 C-2.54555147 3.43992311 -2.54555147 3.43992311 0 0 Z " fill="#242422" transform="translate(222,131)"/>
<path d="M0 0 C0.33 0.99 0.66 1.98 1 3 C1.99 3.66 2.98 4.32 4 5 C4 5.66 4 6.32 4 7 C1.13275314 6.42655063 0.1385485 6.1385485 -2 4 C-4.30745009 4.29329272 -4.30745009 4.29329272 -7 5 C-9.33177975 5.34403308 -11.66487041 5.67949202 -14 6 C-13.34 4.68 -12.68 3.36 -12 2 C-11.01 2.33 -10.02 2.66 -9 3 C-8.5875 2.525625 -8.175 2.05125 -7.75 1.5625 C-5.18000231 -0.7321408 -3.15791486 -1.57895743 0 0 Z " fill="#191919" transform="translate(318,317)"/>
<path d="M0 0 C-0.33 0.66 -0.66 1.32 -1 2 C-3.475 1.505 -3.475 1.505 -6 1 C-6 0.34 -6 -0.32 -6 -1 C-7.77305664 -0.74412595 -9.54344608 -0.46972261 -11.3125 -0.1875 C-12.29863281 -0.03667969 -13.28476562 0.11414063 -14.30078125 0.26953125 C-17.19258991 1.05211912 -18.01800042 1.87642902 -20 4 C-22.6875 3.6875 -22.6875 3.6875 -25 3 C-19.98543352 -2.92335523 -6.4045602 -4.2697068 0 0 Z " fill="#949494" transform="translate(322,327)"/>
<path d="M0 0 C0.99 0.99 1.98 1.98 3 3 C2.01 3.495 2.01 3.495 1 4 C0.566875 4.928125 0.566875 4.928125 0.125 5.875 C-1.19480413 8.36796335 -2.67721672 9.45147781 -5 11 C-7.56687367 7.1496895 -6.83288724 5.41430237 -6 1 C-4 3 -4 3 -4 7 C-3.34 7 -2.68 7 -2 7 C-1.855625 6.21625 -1.71125 5.4325 -1.5625 4.625 C-1 2 -1 2 0 0 Z " fill="#9F9F9F" transform="translate(252,313)"/>
<path d="M0 0 C0.66 0.99 1.32 1.98 2 3 C6.12973628 2.43260132 6.12973628 2.43260132 10 1 C10.33 2.65 10.66 4.3 11 6 C7.9167365 7.54163175 5.39121901 7.29747535 2 7 C0 5.1875 0 5.1875 -1 3 C-0.67 2.01 -0.34 1.02 0 0 Z " fill="#2A2A2A" transform="translate(403,138)"/>
<path d="M0 0 C4.67692308 1.47692308 4.67692308 1.47692308 6.3125 4.125 C6.539375 4.74375 6.76625 5.3625 7 6 C7.99 6 8.98 6 10 6 C10.33 6.66 10.66 7.32 11 8 C11.99 8 12.98 8 14 8 C13.01 9.485 13.01 9.485 12 11 C8.40044503 10.44801641 7.11009074 9.30531978 4.9375 6.4375 C3.53807132 4.50825272 3.53807132 4.50825272 2 3 C1.01 3 0.02 3 -1 3 C-0.67 2.01 -0.34 1.02 0 0 Z " fill="#141414" transform="translate(385,301)"/>
<path d="M0 0 C1.32 0.66 2.64 1.32 4 2 C3.54625 2.37125 3.0925 2.7425 2.625 3.125 C0.54015941 5.53058529 -0.02135035 7.99880775 -1 11 C-1.99 11.495 -1.99 11.495 -3 12 C-4.29539465 9.86640881 -5.03274515 8.52392246 -4.875 6 C-3.73959163 3.40478086 -2.08514322 1.88335517 0 0 Z " fill="#A8A8A6" transform="translate(173,222)"/>
<path d="M0 0 C4.06026166 3.85724858 7.16795959 7.65654881 9 13 C5 13 1 13 -3 13 C-1 11 -1 11 1.5625 10 C4.14841441 9.25129886 4.14841441 9.25129886 5 7 C4.01 6.67 3.02 6.34 2 6 C0.8125 2.9375 0.8125 2.9375 0 0 Z " fill="#3E3E3E" transform="translate(303,98)"/>
<path d="M0 0 C2.71675995 0.36712972 4.61063713 0.72744599 6.875 2.3125 C8 4 8 4 7.875 5.9375 C6.88420853 8.27293703 5.6060189 10.04484656 4 12 C4 9.69 4 7.38 4 5 C2.68 4.34 1.36 3.68 0 3 C0 2.01 0 1.02 0 0 Z " fill="#A6A6A6" transform="translate(192,267)"/>
<path d="M0 0 C0.66 0.33 1.32 0.66 2 1 C1.34 1.495 0.68 1.99 0 2.5 C-2.8827217 6.10340212 -2.30200997 8.46985042 -2 13 C-2.66 12.34 -3.32 11.68 -4 11 C-7.08347826 10.83318891 -7.08347826 10.83318891 -10 11 C-10.33 10.34 -10.66 9.68 -11 9 C-8 7 -8 7 -5 7 C-4.731875 6.401875 -4.46375 5.80375 -4.1875 5.1875 C-3.01506533 3.02775192 -1.80630718 1.64209744 0 0 Z " fill="#B0B0B0" transform="translate(346,323)"/>
<path d="M0 0 C4.58826282 1.93726652 6.80528594 3.48864333 9 8 C7.02 8.33 5.04 8.66 3 9 C1.68 6.36 0.36 3.72 -1 1 C-0.67 0.67 -0.34 0.34 0 0 Z " fill="#727272" transform="translate(423,222)"/>
<path d="M0 0 C0.33 0 0.66 0 1 0 C1.33 2.31 1.66 4.62 2 7 C3.32 7.33 4.64 7.66 6 8 C6.33 9.65 6.66 11.3 7 13 C5.0625 12.6875 5.0625 12.6875 3 12 C2.67 11.01 2.34 10.02 2 9 C1.01 8.67 0.02 8.34 -1 8 C-0.67 5.36 -0.34 2.72 0 0 Z " fill="#BABAB8" transform="translate(165,207)"/>
<path d="M0 0 C0.33 0 0.66 0 1 0 C1.12375 1.27875 1.2475 2.5575 1.375 3.875 C1.93571465 8.98644221 2.91969659 13.97606474 4 19 C1.69 19 -0.62 19 -3 19 C-2.505 17.515 -2.505 17.515 -2 16 C-1.34 15.67 -0.68 15.34 0 15 C0 10.05 0 5.1 0 0 Z " fill="#ADADAC" transform="translate(436,133)"/>
<path d="M0 0 C0.66 0.33 1.32 0.66 2 1 C1.835 1.61875 1.67 2.2375 1.5 2.875 C0.92365356 4.96063386 0.92365356 4.96063386 1 7 C1.99 7 2.98 7 4 7 C4 7.99 4 8.98 4 10 C4.66 10 5.32 10 6 10 C5.67 10.99 5.34 11.98 5 13 C1.86809018 11.9200311 0.99400788 10.99049526 -0.8125 8.125 C-1.99363018 5.01676269 -2.31952499 3.96893123 -1 1 C-0.67 0.67 -0.34 0.34 0 0 Z " fill="#BFBFBF" transform="translate(250,321)"/>
<path d="M0 0 C4.21912747 0.4794463 6.79663178 1.16625119 10 4 C6.52674819 5.1577506 3.63932552 5.06866652 0 5 C-0.33 4.34 -0.66 3.68 -1 3 C-0.67 2.01 -0.34 1.02 0 0 Z " fill="#8B8B8B" transform="translate(229,316)"/>
<path d="M0 0 C0 0.66 0 1.32 0 2 C-5.38027025 3.19088986 -10.45291384 4.2919519 -16 4 C-16 3.34 -16 2.68 -16 2 C-13.32918678 0.66459339 -10.973789 0.66267873 -8 0.4375 C-6.9275 0.35371094 -5.855 0.26992188 -4.75 0.18359375 C-3.16900381 0.07804429 -1.58451558 0 0 0 Z " fill="#BBBBBB" transform="translate(440,267)"/>
<path d="M0 0 C6.56505012 2.67465005 9.82752273 8.00754294 13 14 C10.37812506 12.95125002 9.20628639 12.35068687 7.75 9.875 C7.5025 9.25625 7.255 8.6375 7 8 C6.34 8 5.68 8 5 8 C3.94228261 6.36935236 2.94726954 4.69719127 2 3 C1.34 2.01 0.68 1.02 0 0 Z " fill="#878787" transform="translate(241,321)"/>
<path d="M0 0 C2.0625 2.125 2.0625 2.125 4 5 C3.75 8.3125 3.75 8.3125 3 11 C2.34 11 1.68 11 1 11 C0.67 9.68 0.34 8.36 0 7 C-0.66 7 -1.32 7 -2 7 C-1.42415568 4.61435923 -0.77772405 2.33317216 0 0 Z " fill="#ACACAC" transform="translate(197,294)"/>
<path d="M0 0 C0.80824219 0.19464844 1.61648438 0.38929687 2.44921875 0.58984375 C3.06410156 0.74582031 3.67898438 0.90179688 4.3125 1.0625 C1.30632731 4.06867269 -1.51131598 3.65835316 -5.6875 4.0625 C-6.3475 2.7425 -7.0075 1.4225 -7.6875 0.0625 C-4.39053895 -1.03648702 -3.28255097 -0.80874444 0 0 Z " fill="#5E5E5E" transform="translate(359.6875,115.9375)"/>
<path d="M0 0 C0.33 0.66 0.66 1.32 1 2 C1.99 2.33 2.98 2.66 4 3 C3.34 3 2.68 3 2 3 C1.87882812 3.85464844 1.75765625 4.70929688 1.6328125 5.58984375 C1.46523438 6.69457031 1.29765625 7.79929687 1.125 8.9375 C0.88136719 10.59072266 0.88136719 10.59072266 0.6328125 12.27734375 C0.42398437 13.17582031 0.21515625 14.07429688 0 15 C-0.99 15.495 -0.99 15.495 -2 16 C-3.09824224 12.04632793 -2.88032243 10.55172015 -1 7 C-0.61250787 4.67504723 -0.27017161 2.34148732 0 0 Z " fill="#8D8D8D" transform="translate(406,290)"/>
<path d="M0 0 C0.99 0.495 0.99 0.495 2 1 C2.47574438 3.54024004 2.84007547 6.00051464 3.125 8.5625 C3.21136719 9.27341797 3.29773438 9.98433594 3.38671875 10.71679688 C3.59934783 12.47689312 3.80072697 14.23834164 4 16 C1.19155042 13.72228105 0.08264522 12.63802112 -0.390625 8.984375 C-0.34421875 7.91703125 -0.2978125 6.8496875 -0.25 5.75 C-0.21390625 4.67234375 -0.1778125 3.5946875 -0.140625 2.484375 C-0.09421875 1.66453125 -0.0478125 0.8446875 0 0 Z " fill="#313131" transform="translate(393,111)"/>
<path d="M0 0 C1.27875 0.28875 2.5575 0.5775 3.875 0.875 C4.95394531 1.11863281 4.95394531 1.11863281 6.0546875 1.3671875 C8 2 8 2 10 4 C5.545 4.495 5.545 4.495 1 5 C0.67 3.35 0.34 1.7 0 0 Z " fill="#8B8B8A" transform="translate(268,99)"/>
<path d="M0 0 C0.68359375 1.734375 0.68359375 1.734375 1 4 C-0.21484375 6.140625 -0.21484375 6.140625 -1.9375 8.25 C-2.50339844 8.95640625 -3.06929688 9.6628125 -3.65234375 10.390625 C-4.09707031 10.92171875 -4.54179687 11.4528125 -5 12 C-6.32 11.34 -7.64 10.68 -9 10 C-8.39671875 9.75507813 -7.7934375 9.51015625 -7.171875 9.2578125 C-4.61035221 7.77434067 -3.72499008 6.41526069 -2.25 3.875 C-1.82203125 3.15054687 -1.3940625 2.42609375 -0.953125 1.6796875 C-0.63859375 1.12539063 -0.3240625 0.57109375 0 0 Z " fill="#ADADAD" transform="translate(403,302)"/>
<path d="M0 0 C0.66 0.33 1.32 0.66 2 1 C2.3690205 10.41002278 2.3690205 10.41002278 0 15 C-0.33 15 -0.66 15 -1 15 C-1 3 -1 3 0 0 Z " fill="#878787" transform="translate(193,250)"/>
<path d="M0 0 C2.69082872 0.17635452 5.32851446 0.61835921 8 1 C7.01 1.495 7.01 1.495 6 2 C6 2.66 6 3.32 6 4 C4.02 4.33 2.04 4.66 0 5 C-0.5625 3.0625 -0.5625 3.0625 -1 1 C-0.67 0.67 -0.34 0.34 0 0 Z " fill="#BDBDBD" transform="translate(328,328)"/>
<path d="M0 0 C3.43595166 1.52708963 6.11912454 3.59927045 9 6 C8.67 6.66 8.34 7.32 8 8 C4.5625 6.8125 4.5625 6.8125 1 5 C0.0625 2.3125 0.0625 2.3125 0 0 Z " fill="#1C1C1C" transform="translate(418,216)"/>
<path d="M0 0 C2.97 0.495 2.97 0.495 6 1 C6 1.99 6 2.98 6 4 C5.01 4.495 5.01 4.495 4 5 C4 5.66 4 6.32 4 7 C2.35 7.33 0.7 7.66 -1 8 C-1 7.01 -1 6.02 -1 5 C-0.01 5 0.98 5 2 5 C1.34 3.35 0.68 1.7 0 0 Z " fill="#9C9C9A" transform="translate(166,153)"/>
<path d="M0 0 C0.33 0.99 0.66 1.98 1 3 C0.01 4.485 0.01 4.485 -1 6 C-2.65 5.67 -4.3 5.34 -6 5 C-5.25 3.0625 -5.25 3.0625 -4 1 C-1.875 0.25 -1.875 0.25 0 0 Z " fill="#9A9A98" transform="translate(219,139)"/>
<path d="M0 0 C1.7397511 3.23096633 3.02103997 6.46068295 4 10 C3.67 10.99 3.34 11.98 3 13 C0.46800028 10.46800028 -0.11946497 8.45440665 -1 5 C-0.625 2.125 -0.625 2.125 0 0 Z " fill="#161615" transform="translate(162,193)"/>
<path d="M0 0 C1.18851562 0.00902344 2.37703125 0.01804688 3.6015625 0.02734375 C4.51679688 0.03894531 5.43203125 0.05054688 6.375 0.0625 C3.43233911 2.02427393 2.25067527 2.42992347 -1.125 2.8125 C-2.28515625 2.95945313 -2.28515625 2.95945313 -3.46875 3.109375 C-5.625 3.0625 -5.625 3.0625 -8.625 1.0625 C-5.74084117 -0.37957941 -3.20778472 -0.03144887 0 0 Z " fill="#2E2E2E" transform="translate(429.625,149.9375)"/>
<path d="M0 0 C2.35448165 2.55068845 2.98327924 3.71017358 3.1875 7.25 C3.125625 8.1575 3.06375 9.065 3 10 C1.68 10 0.36 10 -1 10 C-2.75 8 -2.75 8 -4 6 C-3.67 5.34 -3.34 4.68 -3 4 C-1.515 4.99 -1.515 4.99 0 6 C0 4.02 0 2.04 0 0 Z " fill="#AEAEAE" transform="translate(388,98)"/>
<path d="M0 0 C2.375 0.1875 2.375 0.1875 5 1 C6.1875 3.5 6.1875 3.5 7 6 C7.66 6.33 8.32 6.66 9 7 C7.02 7.99 5.04 8.98 3 10 C3.33 7.69 3.66 5.38 4 3 C2.68 2.01 1.36 1.02 0 0 Z " fill="#989898" transform="translate(262,303)"/>
<path d="M0 0 C0 0.66 0 1.32 0 2 C0.66 2 1.32 2 2 2 C1.67 3.32 1.34 4.64 1 6 C0.34 4.68 -0.32 3.36 -1 2 C-2.98 2.66 -4.96 3.32 -7 4 C-7.66 3.34 -8.32 2.68 -9 2 C-5.62902617 0.50178941 -3.79557881 0 0 0 Z " fill="#161616" transform="translate(237,292)"/>
<path d="M0 0 C0.99 0.33 1.98 0.66 3 1 C3 3 3 5 3 7 C0.69 6.34 -1.62 5.68 -4 5 C-3.34 4.01 -2.68 3.02 -2 2 C-1.34 2 -0.68 2 0 2 C0 1.34 0 0.68 0 0 Z " fill="#151515" transform="translate(217,294)"/>
<path d="M0 0 C0.33 0 0.66 0 1 0 C1.93402724 5.41735797 2.20808081 8.80451575 0 14 C-0.99 13.34 -1.98 12.68 -3 12 C-2.690625 11.319375 -2.38125 10.63875 -2.0625 9.9375 C-0.86629351 6.63034088 -0.40994603 3.48454122 0 0 Z " fill="#A1A1A1" transform="translate(411,276)"/>
<path d="M0 0 C2.83374881 3.20336822 3.5205537 5.78087253 4 10 C3.01 10.495 3.01 10.495 2 11 C0.68 8.36 -0.64 5.72 -2 3 C-1.34 2.67 -0.68 2.34 0 2 C0 1.34 0 0.68 0 0 Z " fill="#B1B1AF" transform="translate(160,195)"/>
<path d="M0 0 C1.134375 0.020625 2.26875 0.04125 3.4375 0.0625 C1.4375 1.0625 -0.5625 2.0625 -2.5625 3.0625 C-3.21463292 5.08713255 -3.21463292 5.08713255 -3.5625 7.0625 C-4.5525 6.7325 -5.5425 6.4025 -6.5625 6.0625 C-4.25951087 0.07472826 -4.25951087 0.07472826 0 0 Z " fill="#6E6E6E" transform="translate(428.5625,252.9375)"/>
<path d="M0 0 C3.3 1.98 6.6 3.96 10 6 C9.34 6.66 8.68 7.32 8 8 C5.03 6.02 2.06 4.04 -1 2 C-0.67 1.34 -0.34 0.68 0 0 Z " fill="#111111" transform="translate(422,241)"/>
<path d="M0 0 C3.66161578 1.22053859 4.16270474 2.36782304 6.1875 5.5625 C6.71730469 6.38878906 7.24710937 7.21507812 7.79296875 8.06640625 C8.19128906 8.70449219 8.58960938 9.34257812 9 10 C8.01 10.495 8.01 10.495 7 11 C5.82750647 9.54634731 4.66216184 8.08692581 3.5 6.625 C2.52546875 5.40683594 2.52546875 5.40683594 1.53125 4.1640625 C0 2 0 2 0 0 Z " fill="#141414" transform="translate(361,126)"/>
<path d="M0 0 C0.66 0.33 1.32 0.66 2 1 C0.35 4.3 -1.3 7.6 -3 11 C-3.33 11 -3.66 11 -4 11 C-4.36630156 7.06225823 -4.30233203 5.43460229 -2 2.125 C-1.34 1.42375 -0.68 0.7225 0 0 Z " fill="#8C8C8C" transform="translate(379,123)"/>
<path d="M0 0 C2.32590854 3.63423209 2.16265833 6.77088331 2 11 C0.68 9.68 -0.64 8.36 -2 7 C-1.34 4.69 -0.68 2.38 0 0 Z " fill="#A6A6A4" transform="translate(251,115)"/>
<path d="M0 0 C-4.39148936 2.07375887 -4.39148936 2.07375887 -7.0625 1.75 C-9.11586582 0.95514871 -11.03742896 -0.00443382 -13 -1 C-11.39773045 -1.22245393 -9.79303233 -1.42746669 -8.1875 -1.625 C-7.29417969 -1.74101562 -6.40085937 -1.85703125 -5.48046875 -1.9765625 C-3 -2 -3 -2 0 0 Z " fill="#AFAFAF" transform="translate(426,272)"/>
<path d="M0 0 C0 0.66 0 1.32 0 2 C-0.66 2 -1.32 2 -2 2 C-1.34 3.98 -0.68 5.96 0 8 C-1.32 8.33 -2.64 8.66 -4 9 C-4 6.36 -4 3.72 -4 1 C-2 0 -2 0 0 0 Z " fill="#C2C2C0" transform="translate(210,138)"/>
<path d="M0 0 C0.66 1.32 1.32 2.64 2 4 C1.34 4 0.68 4 0 4 C0 2.68 0 1.36 0 0 Z M-2 4 C-1.01 4.33 -0.02 4.66 1 5 C-0.28965176 6.37562854 -1.62689293 7.70766393 -3 9 C-3.66 9 -4.32 9 -5 9 C-5 8.01 -5 7.02 -5 6 C-4.01 5.34 -3.02 4.68 -2 4 Z " fill="#171717" transform="translate(224,284)"/>
<path d="M0 0 C0.66 0.33 1.32 0.66 2 1 C1.67 3.64 1.34 6.28 1 9 C0.34 9 -0.32 9 -1 9 C-1.33 9.66 -1.66 10.32 -2 11 C-1.125 3.375 -1.125 3.375 0 0 Z " fill="#A4A4A2" transform="translate(168,245)"/>
<path d="M0 0 C0.99 1.32 1.98 2.64 3 4 C0 6 0 6 -2 6 C-3.62514468 7.45833358 -3.62514468 7.45833358 -5 9 C-4.42647107 5.12867972 -2.51295648 2.91827204 0 0 Z " fill="#545452" transform="translate(228,123)"/>
<path d="M0 0 C1.45606519 4.52092968 0.27032841 7.51648796 -1 12 C-1.99 12 -2.98 12 -4 12 C-3.52309796 10.37433394 -3.04340334 8.74948689 -2.5625 7.125 C-2.29566406 6.22007813 -2.02882812 5.31515625 -1.75390625 4.3828125 C-1 2 -1 2 0 0 Z " fill="#A1A19F" transform="translate(234,115)"/>
<path d="M0 0 C1.98 0 3.96 0 6 0 C6.33 0.66 6.66 1.32 7 2 C6.67 2.66 6.34 3.32 6 4 C6.99 4.33 7.98 4.66 9 5 C6.6568787 4.74438677 4.32156597 4.40729228 2 4 C1.33333333 2.66666667 0.66666667 1.33333333 0 0 Z " fill="#252525" transform="translate(331,325)"/>
<path d="M0 0 C0.33 0 0.66 0 1 0 C1.66 4.29 2.32 8.58 3 13 C2.01 12.34 1.02 11.68 0 11 C-0.29296875 8.3984375 -0.29296875 8.3984375 -0.1875 5.375 C-0.16042969 4.37210937 -0.13335937 3.36921875 -0.10546875 2.3359375 C-0.07066406 1.56507813 -0.03585937 0.79421875 0 0 Z " fill="#7E7E7C" transform="translate(371,320)"/>
<path d="M0 0 C0.99 0 1.98 0 3 0 C2.34 2.31 1.68 4.62 1 7 C0.34 7 -0.32 7 -1 7 C-1.04254356 5.00045254 -1.04080783 2.99958364 -1 1 C-0.67 0.67 -0.34 0.34 0 0 Z " fill="#131311" transform="translate(173,215)"/>
<path d="M0 0 C4.7517398 0.43197635 6.92000054 1.32769295 10 5 C9.01 5.33 8.02 5.66 7 6 C4.42414232 4.17805188 2.22875556 2.22875556 0 0 Z " fill="#131313" transform="translate(423,183)"/>
<path d="M0 0 C-1.6875 2.0625 -1.6875 2.0625 -4 4 C-6.75 3.75 -6.75 3.75 -9 3 C-6.38220849 -0.01046024 -3.86655673 -1.93327837 0 0 Z " fill="#A1A1A1" transform="translate(306,327)"/>
<path d="M0 0 C0.66 0 1.32 0 2 0 C5.11450382 4.15267176 5.11450382 4.15267176 4.6875 7.3125 C4.460625 7.869375 4.23375 8.42625 4 9 C1 4.25 1 4.25 1 2 C0.34 1.67 -0.32 1.34 -1 1 C-0.67 0.67 -0.34 0.34 0 0 Z " fill="#C7C7C7" transform="translate(196,288)"/>
<path d="M0 0 C0 0.66 0 1.32 0 2 C-1.98 2.66 -3.96 3.32 -6 4 C-6.99 3.01 -7.98 2.02 -9 1 C-5.8035914 -0.06546953 -3.34252724 -0.07427838 0 0 Z " fill="#CCCCCA" transform="translate(473,244)"/>
<path d="M0 0 C0.66 0.33 1.32 0.66 2 1 C0.90716423 2.03295436 -0.19970579 3.05107835 -1.3125 4.0625 C-1.92738281 4.63097656 -2.54226563 5.19945312 -3.17578125 5.78515625 C-3.77777344 6.18605469 -4.37976563 6.58695313 -5 7 C-5.99 6.67 -6.98 6.34 -8 6 C-5.36 4.02 -2.72 2.04 0 0 Z " fill="#A5A5A5" transform="translate(431,201)"/>
<path d="M0 0 C0.33 0.66 0.66 1.32 1 2 C1.66 2.28875 2.32 2.5775 3 2.875 C3.66 3.24625 4.32 3.6175 5 4 C5.33 5.32 5.66 6.64 6 8 C3.69 6.35 1.38 4.7 -1 3 C-0.67 2.01 -0.34 1.02 0 0 Z " fill="#898989" transform="translate(408,165)"/>
<path d="M0 0 C2 2 2 2 2 5 C-0.31 5 -2.62 5 -5 5 C-4.34 4.67 -3.68 4.34 -3 4 C-3 3.34 -3 2.68 -3 2 C-2.01 1.34 -1.02 0.68 0 0 Z " fill="#3E3E3D" transform="translate(412,139)"/>
<path d="M0 0 C0.66 0.66 1.32 1.32 2 2 C-0.31 3.65 -2.62 5.3 -5 7 C-5.33 6.01 -5.66 5.02 -6 4 C-4.02 2.68 -2.04 1.36 0 0 Z " fill="#222222" transform="translate(352,316)"/>
<path d="M0 0 C0.99 0.99 1.98 1.98 3 3 C2.01 3.495 2.01 3.495 1 4 C0.67 4.99 0.34 5.98 0 7 C-0.66 7 -1.32 7 -2 7 C-1.125 2.25 -1.125 2.25 0 0 Z " fill="#B8B8B8" transform="translate(252,313)"/>
<path d="M0 0 C2 2 2 2 2.1953125 4.1640625 C2.16050781 5.38222656 2.16050781 5.38222656 2.125 6.625 C2.10695312 7.44226563 2.08890625 8.25953125 2.0703125 9.1015625 C2.04710937 9.72804688 2.02390625 10.35453125 2 11 C1.01 10.67 0.02 10.34 -1 10 C-1 8.68 -1 7.36 -1 6 C-0.34 6 0.32 6 1 6 C0.67 4.02 0.34 2.04 0 0 Z " fill="#838381" transform="translate(196,301)"/>
<path d="M0 0 C1.32 0.66 2.64 1.32 4 2 C3.525625 2.391875 3.05125 2.78375 2.5625 3.1875 C0.64820367 5.40808374 0.38733012 7.13375709 0 10 C-0.33 10 -0.66 10 -1 10 C-1.125 3.375 -1.125 3.375 0 0 Z " fill="#BBBBB9" transform="translate(173,222)"/>
<path d="M0 0 C0.99 0.99 1.98 1.98 3 3 C2.6875 6.6875 2.6875 6.6875 2 10 C1.34 9.67 0.68 9.34 0 9 C0 6.03 0 3.06 0 0 Z " fill="#7D7D7D" transform="translate(434,190)"/>
<path d="M0 0 C0.99 0.66 1.98 1.32 3 2 C3.1875 4.625 3.1875 4.625 3 7 C2.01 7.33 1.02 7.66 0 8 C0 7.34 0 6.68 0 6 C-0.66 6 -1.32 6 -2 6 C-1.67 5.34 -1.34 4.68 -1 4 C-0.34 4.33 0.32 4.66 1 5 C0.67 3.35 0.34 1.7 0 0 Z " fill="#3F3F3F" transform="translate(390,103)"/>
<path d="M0 0 C4.6875 0.78125 4.6875 0.78125 9.375 1.5625 C10.674375 1.7790625 10.674375 1.7790625 12 2 C9.84570717 3.3079635 8.54723536 4.05130331 6 3.8125 C3.67095092 2.86632381 1.93636314 1.59058401 0 0 Z " fill="#2F2F2F" transform="translate(274,100)"/>
<path d="M0 0 C1.32 0.66 2.64 1.32 4 2 C3.01 2.495 3.01 2.495 2 3 C1.835 3.66 1.67 4.32 1.5 5 C1.335 5.66 1.17 6.32 1 7 C0.01 7.495 0.01 7.495 -1 8 C-0.67 5.36 -0.34 2.72 0 0 Z " fill="#A4A4A2" transform="translate(172,233)"/>
<path d="M0 0 C1.32 0.66 2.64 1.32 4 2 C4 2.66 4 3.32 4 4 C1.69 4 -0.62 4 -3 4 C-2.01 2.68 -1.02 1.36 0 0 Z " fill="#959595" transform="translate(418,220)"/>
<path d="M0 0 C1.9375 0.6875 1.9375 0.6875 2.9375 2.6875 C0.2975 3.0175 -2.3425 3.3475 -5.0625 3.6875 C-4.7325 2.6975 -4.4025 1.7075 -4.0625 0.6875 C-2.0625 -0.3125 -2.0625 -0.3125 0 0 Z " fill="#3E3E3C" transform="translate(237.0625,125.3125)"/>
<path d="M0 0 C-0.598125 0.12375 -1.19625 0.2475 -1.8125 0.375 C-4.26231348 0.95475985 -4.26231348 0.95475985 -7 3 C-7.66 1.68 -8.32 0.36 -9 -1 C-5.79937313 -2.60031344 -3.27728194 -1.03173691 0 0 Z " fill="#363635" transform="translate(274,99)"/>
<path d="M0 0 C0.66 0.33 1.32 0.66 2 1 C0.3125 3.0625 0.3125 3.0625 -2 5 C-4.75 4.75 -4.75 4.75 -7 4 C-4.66603411 2.44402274 -2.57343171 1.07918104 0 0 Z " fill="#BEBEBE" transform="translate(374,309)"/>
<path d="M0 0 C2.6875 0.875 2.6875 0.875 5 2 C5 2.99 5 3.98 5 5 C4.34 5 3.68 5 3 5 C3 4.34 3 3.68 3 3 C0.03 2.505 0.03 2.505 -3 2 C-2.01 1.34 -1.02 0.68 0 0 Z " fill="#E2E2E2" transform="translate(218,282)"/>
<path d="M0 0 C0.66 0.99 1.32 1.98 2 3 C1.54625 3.598125 1.0925 4.19625 0.625 4.8125 C-0.63295913 6.50590652 -1.82984724 8.24477086 -3 10 C-2.25 3.375 -2.25 3.375 0 0 Z " fill="#C1C1C1" transform="translate(423,260)"/>
<path d="M0 0 C2.31 0 4.62 0 7 0 C6.01 1.485 6.01 1.485 5 3 C2.375 3.1875 2.375 3.1875 0 3 C0 2.01 0 1.02 0 0 Z " fill="#9D9B9C" transform="translate(441,252)"/>
<path d="M0 0 C0.33 0 0.66 0 1 0 C1.66 2.97 2.32 5.94 3 9 C1.68 8.67 0.36 8.34 -1 8 C-0.67 5.36 -0.34 2.72 0 0 Z " fill="#ADADAB" transform="translate(165,207)"/>
</svg>
